<?xml version="1.0" encoding="utf-8"?>
<!-- Generator: Adobe Illustrator 27.9.0, SVG Export Plug-In . SVG Version: 6.00 Build 0)  -->
<svg version="1.1" id="Warstwa_1" xmlns="http://www.w3.org/2000/svg" xmlns:xlink="http://www.w3.org/1999/xlink" x="0px" y="0px"
	 viewBox="0 0 1080 1080" style="enable-background:new 0 0 1080 1080;" xml:space="preserve">
<style type="text/css">
	.st0{fill:#01356E;enable-background:new    ;}
</style>
<path class="st0" d="M436.7,469.6c0-10,0-18.4,0-27.9c-3.7-0.2-7.2-0.6-10.6-0.6c-25.9,0-51.8,0-77.7,0c-13.3,0-15.8-2.7-15.9-16.6
	c0-3.4,0-6.9,0-11.4c-3.7-0.4-6.9-0.9-10.1-0.9c-87.3,0-174.6,0-262-0.1c-5.1,0-8.9,1.4-12.8,5.3c-12.2,12.3-28.9,11.5-40.1-1.3
	c-10.8-12.4-10-30,1.8-41.6c11.5-11.4,28.2-10.8,39.6,1.6c3.1,3.4,5.8,5.7,10.6,5.7c49.1-0.2,98.2-0.1,147.2-0.1
	c1.7,0,3.5-0.4,6.5-0.8c0-5.9,0-11.5,0-17.1c-0.1-15.8-0.2-31.6-0.2-47.4c-0.1-54.3,43.7-96.5,95.5-93.1c17.6,1.2,35.4,0.2,53.8,0.2
	c0.2-3.7,0.6-6.7,0.5-9.7c-0.9-49.6-1.9-99.2-2.7-148.9c-0.1-5.7-1.6-9.9-5.7-14c-12.1-12.2-11.9-30.2-0.3-42.2
	c11-11.3,28-11.4,39.1-0.3c11.6,11.5,11.6,29.6,0.5,42.5c-2.4,2.7-4.7,6.9-4.7,10.3c0.8,52.5,1.9,104.9,3,157.4
	c0,1.2,0.5,2.4,0.9,4.5c23.5,0,47.1,0,71.5,0c0.2-3.9,0.6-7.2,0.6-10.6c0-31-0.1-62,0.1-93c0-6.1-1.6-10.4-6.1-14.7
	c-12.5-11.9-12.6-31-0.9-42.9c11.4-11.6,28.5-11.4,39.7,0.6c11.7,12.6,11.4,31.1-1.7,42.7c-4.9,4.4-6.6,8.8-6.6,15.3
	c0.3,30.7,0.1,61.3,0.1,92c0,3.4,0.3,6.8,0.5,10.8c3.6,0.2,6.6,0.6,9.5,0.6c89.1,0,178.3,0.4,267.4-0.3c23.5-0.2,45,4.2,63.3,19.8
	c23,19.7,34.6,45.3,34,77c-0.7,33.5-0.3,67-0.4,100.5c0,1.6,0.3,3.1,0.5,5.8c2.8,0.3,5.7,0.8,8.5,0.8c48.8-0.7,97.5-1.6,146.3-2.2
	c5.3-0.1,8-2.8,11.1-6.4c8-9.2,17.9-12.4,29.5-8.7c10.6,3.4,18.9,14.2,19.7,25.9c0.9,12.6-4.6,22-14.7,28.4
	c-9.5,6.1-22.7,5.2-31.1-3c-4.9-4.8-9.9-6-16.2-5.9c-47.9,1-95.7,1.7-143.6,2.5c-3,0.1-5.9,0.3-9.5,0.5c0,10.2,0,19.8,0,30.4
	c3.3,0.2,6.5,0.5,9.7,0.5c31,0,62-0.1,93,0.1c6.7,0.1,11.6-1.2,16.3-7.2c9.1-11.7,24.2-13.1,35.9-4.9c11.7,8.1,16,23.4,10.3,36.7
	c-5.4,12.9-19.5,21.2-31.8,16.8c-7.6-2.7-14-8.9-23.7-15.3c-33.8,0-71.4,0-110.3,0c0,4.1,0,7.8,0,11.4c0.1,96.1,0.2,192.2,0.3,288.4
	c0.1,50.8-39.3,92.4-87.7,92.6c-7.2,0-14.3,0-22.5,0c-0.3,3.8-0.7,7.2-0.7,10.5c0,31.6,0.1,63.2-0.1,94.9c0,6.1,1.5,10.4,6.2,14.5
	c13.3,11.7,14,29.9,2.4,42.7c-11.2,12.4-28.9,12.6-40.3,0.5c-11.7-12.5-11.3-30.9,1.3-42.9c3.6-3.4,5.8-6.6,5.7-11.9
	c-0.2-33.2-0.1-66.4-0.1-99.6c0-2.5-0.4-4.9-0.8-8.3c-3.5-0.2-6.7-0.6-9.9-0.6c-133.1,0-266.2-0.1-399.3,0c-15,0-30.2,1.7-44.7-4.2
	c-33.9-13.9-56.1-38.8-59-77.6c-2.4-32.4-1.4-65-1.8-97.6c-0.1-4.7,0-9.4,0-15.1c-35.6,0-70.7,0-106.2,0c-1.8,2.2-3.7,5-6,7.5
	c-11.3,12.1-28.1,12.4-39.6,0.7c-11.9-12.1-12-30.1-0.3-42.3c11.4-11.9,28.5-12.2,39.4,0.4c5.3,6.2,10.7,7.6,18,7.6
	c101.5,0,202.9,0.1,304.4,0.3c4.2,0,8.4,0,13.5,0c0-17.5,0-34.3,0-52.5c-4,0-7.8,0-11.6,0c-63.2,0-126.5,0-189.7,0
	c-3.3,0-6.7,0.1-9.9-0.3c-8.5-1.1-11.8-4.6-11.8-13.6c-0.1-46.2-0.1-92.3,0-138.5c0-10,3.4-13,13.6-13c65.6,0,131.3,0,196.9,0
	C427.7,469.6,431.6,469.6,436.7,469.6z M595.7,813.5c0.2-3.4,0.5-5.9,0.5-8.4c0-122.4,0-244.7,0-367.1c0-12.3,1.8-14.5,13.3-14.5
	c26.8-0.1,53.6,0,80.4,0c3.5,0,7-0.3,10.8-0.5c0-31,0-61.1,0-92.1c-3.9,0-6.9,0-9.9,0c-111.7,0.1-223.4,0.1-335.1,0.3
	c-4.2,0-8.5,0.2-12.5,1.1c-5.2,1.2-8.1,5.2-8.3,10.9c-0.2,5.7,1.9,10.1,7.2,11.8c4,1.3,8.2,1.9,12.4,2c19.9,0.2,39.7,0.1,59.6,0.1
	c16.3,0,32.5-0.2,48.8,0.1c11.5,0.2,19.1,7,23.3,17.8c4.3,10.9,1.1,20.5-6.3,28.7c-6.5,7.2-15.1,8.6-24.1,8.6
	c-31.6-0.1-63.2-0.1-94.8,0c-3.5,0-7,0.4-10.9,0.6c0,3.8,0,6.7,0,10.7c3.9,0,7.1,0,10.3,0c25.9,0,51.8,0,77.7,0
	c13,0,16,3.1,16.1,16.6c0.1,9.4,0,18.8,0,28.9c4.8,0.3,8.3,0.6,11.8,0.6c28.3,0,56.6,0,84.9,0.1c5.1,0,10.3,0.3,15.2,1.5
	c12.6,3.1,21.7,14.9,21.9,27.9c0.3,13.3-7.7,25.2-20.3,29.1c-4.5,1.4-9.5,1.8-14.2,1.8c-80.7,0.1-161.4,0-242.1,0.3
	c-5.4,0-11.6,1.3-16.1,4.2c-7.8,5.1-10.4,13.8-9,23.2c1.4,9.5,6.6,16.6,15.5,19.2c6,1.7,12.5,2.1,18.7,2.1
	c60.5,0.1,121,0.1,181.6,0.1c4.5,0,9.1-0.4,13.5,0.1c20.2,1.9,31.3,25.5,20.2,42.9c-5.8,9.2-14.2,13.2-24.6,13
	c-15.7-0.2-31.3-0.2-47-0.2c-3.1,0-6.3,0.5-9.4,0.7c0,59.9,0,118.6,0,177.9C501.8,813.5,548.3,813.5,595.7,813.5z M93.8,699.7
	c-0.2-7.1-6.1-13.1-12.8-13.1c-7.1,0-13.1,6.5-13,13.9c0.2,7.1,6,13,12.8,13C88,713.6,93.9,707.2,93.8,699.7z M28.7,409.6
	c7.2-0.2,12.9-6.8,12.5-14.3c-0.4-7.2-6.3-12.9-13.1-12.7c-6.7,0.1-12.5,6.3-12.5,13.3C15.6,403.5,21.7,409.8,28.7,409.6z M374,42.6
	c7.5-0.1,12.5-5.2,12.6-12.8c0.1-7.8-5.6-13.6-13.2-13.4c-7.3,0.2-12.2,5.7-12,13.5C361.5,37.7,366.5,42.7,374,42.6z M465.2,83.3
	c0.1,7.3,5.8,13.1,12.8,13c7.2-0.1,12.6-5.6,12.6-13.1c0.1-7.9-5.7-13.8-13.2-13.5C470.3,70,465,75.9,465.2,83.3z M741.5,1063.2
	c7.3,0.1,12.7-5.1,13-12.5c0.3-7.6-5.5-13.7-13-13.7c-7.1,0-12.5,5.7-12.5,13.2C729.1,1057.7,734.2,1063.1,741.5,1063.2z
	 M1064.3,438.6c0-7.8-4.7-12.8-12.3-13c-7.8-0.2-12.5,4.4-12.7,12.4c-0.2,8.3,4.9,13.8,12.6,13.7
	C1059.1,451.7,1064.2,446.2,1064.3,438.6z M1004,488.9c-7.4,0.2-12.2,5.5-12.1,13.4c0.1,8.2,5.3,13.2,13.3,12.8
	c7.3-0.4,12.2-6.1,11.9-13.6C1016.7,494.2,1011,488.7,1004,488.9z"/>
</svg>
